<svg xmlns="http://www.w3.org/2000/svg" id="canvas" viewBox="422.260 182.964 646.776 396.201"><path d="M 499.24,314.79 C 498.53 315.88, 498.15 317.05, 497.99 320.29 C 497.83 323.53, 498.40 325.84, 498.45 330.97 C 498.50 336.11, 498.31 339.30, 498.24 345.96 C 498.18 352.63, 498.23 356.30, 498.13 364.31 C 498.03 372.31, 498.04 376.76, 497.76 385.99 C 497.47 395.22, 497.23 400.34, 496.71 410.46 C 496.19 420.57, 495.96 425.93, 495.17 436.58 C 494.38 447.23, 493.98 453.02, 492.77 463.72 C 491.56 474.43, 490.76 479.92, 489.12 490.10 C 487.49 500.28, 486.55 505.43, 484.59 514.62 C 482.64 523.81, 481.56 528.31, 479.34 536.06 C 477.12 543.81, 476.02 547.52, 473.50 553.36 C 470.98 559.21, 469.52 561.71, 466.75 565.29 C 463.97 568.86, 462.44 569.90, 459.63 571.25 C 456.83 572.59, 455.52 572.80, 452.70 572.03 C 449.88 571.26, 448.35 570.41, 445.55 567.39 C 442.74 564.38, 441.20 561.96, 438.68 556.95 C 436.16 551.94, 434.86 548.63, 432.93 542.35 C 431.01 536.06, 430.10 532.51, 429.05 525.52 C 428.00 518.53, 427.68 514.69, 427.70 507.41 C 427.71 500.12, 428.40 495.90, 429.15 489.11 C 429.90 482.31, 430.63 478.66, 431.44 473.44 C 432.24 468.22, 433.25 465.18, 433.19 463.02 C 433.12 460.85, 431.98 460.62, 431.11 462.61 C 430.23 464.61, 429.73 467.77, 428.82 473.01 C 427.91 478.25, 427.28 481.95, 426.56 488.83 C 425.85 495.71, 425.26 499.99, 425.26 507.40 C 425.26 514.81, 425.56 518.73, 426.56 525.88 C 427.55 533.03, 428.38 536.64, 430.22 543.15 C 432.06 549.65, 433.22 553.03, 435.74 558.38 C 438.26 563.74, 439.63 566.44, 442.83 569.90 C 446.04 573.37, 448.08 574.84, 451.75 575.73 C 455.42 576.63, 457.71 576.11, 461.18 574.37 C 464.64 572.63, 466.16 571.03, 469.06 567.01 C 471.96 562.99, 473.23 560.35, 475.66 554.26 C 478.10 548.18, 479.11 544.45, 481.24 536.59 C 483.37 528.73, 484.41 524.23, 486.32 514.98 C 488.22 505.74, 489.14 500.58, 490.75 490.36 C 492.37 480.15, 493.17 474.64, 494.38 463.91 C 495.60 453.17, 496.01 447.38, 496.83 436.71 C 497.65 426.04, 497.91 420.68, 498.49 410.55 C 499.07 400.42, 499.35 395.30, 499.74 386.06 C 500.13 376.82, 500.17 372.36, 500.46 364.36 C 500.75 356.36, 500.83 352.72, 501.19 346.06 C 501.55 339.39, 501.99 336.21, 502.27 331.06 C 502.54 325.91, 502.72 323.54, 502.57 320.30 C 502.42 317.05, 502.18 315.93, 501.52 314.83 C 500.85 313.73, 499.94 313.69, 499.24 314.79" style="stroke: black; fill: black;"/><path d="M 495.99,206.69 C 495.88 206.74, 495.92 207.87, 496.21 208.78 C 496.50 209.70, 496.93 210.59, 497.43 211.27 C 497.94 211.94, 498.16 212.31, 498.73 212.16 C 499.30 212.01, 500.04 211.26, 500.30 210.51 C 500.56 209.77, 500.06 208.87, 500.02 208.43 C 499.99 207.99, 499.72 208.45, 500.11 208.30 C 500.50 208.15, 501.67 208.07, 501.97 207.68 C 502.28 207.28, 502.02 207.02, 501.66 206.32 C 501.30 205.63, 500.86 204.95, 500.19 204.22 C 499.53 203.49, 499.08 202.76, 498.33 202.67 C 497.57 202.58, 496.92 202.93, 496.42 203.75 C 495.92 204.56, 495.76 205.77, 495.82 206.73 C 495.88 207.69, 496.70 208.55, 496.73 208.54 C 496.77 208.53, 496.10 206.64, 495.99 206.69" style="stroke: black; fill: black;"/><path d="M 564.87,293.11 C 564.87 292.04, 564.44 291.00, 563.16 289.85 C 561.88 288.69, 560.77 287.66, 558.49 287.34 C 556.20 287.03, 554.25 286.90, 551.73 288.27 C 549.20 289.64, 548.39 290.92, 545.87 294.19 C 543.35 297.46, 541.99 299.57, 539.14 304.60 C 536.29 309.63, 534.50 312.91, 531.63 319.35 C 528.77 325.79, 527.17 329.68, 524.82 336.82 C 522.48 343.96, 521.21 347.95, 519.92 355.06 C 518.63 362.17, 518.35 366.04, 518.38 372.37 C 518.41 378.69, 518.68 381.73, 520.06 386.68 C 521.44 391.64, 522.50 393.84, 525.27 397.15 C 528.04 400.46, 530.12 401.90, 533.92 403.23 C 537.71 404.57, 540.00 404.60, 544.23 403.83 C 548.46 403.05, 550.73 402.05, 555.07 399.35 C 559.41 396.64, 561.91 394.70, 565.93 390.31 C 569.95 385.91, 571.93 383.07, 575.18 377.38 C 578.43 371.68, 579.89 368.37, 582.17 361.84 C 584.44 355.32, 585.49 351.57, 586.56 344.74 C 587.63 337.90, 587.79 334.23, 587.52 327.66 C 587.25 321.09, 586.66 317.73, 585.21 311.91 C 583.77 306.09, 582.43 303.23, 580.30 298.56 C 578.17 293.88, 576.88 291.89, 574.57 288.54 C 572.27 285.19, 571.06 283.65, 568.80 281.83 C 566.54 280.01, 564.94 279.90, 563.27 279.45 C 561.59 279.00, 561.07 279.31, 560.42 279.59 C 559.77 279.87, 559.73 280.27, 560.00 280.86 C 560.26 281.45, 560.60 281.56, 561.73 282.52 C 562.85 283.48, 563.68 283.99, 565.64 285.66 C 567.59 287.32, 569.14 288.00, 571.50 290.85 C 573.85 293.71, 575.22 295.59, 577.43 299.94 C 579.63 304.29, 581.01 307.04, 582.50 312.61 C 584.00 318.17, 584.61 321.43, 584.91 327.78 C 585.22 334.12, 585.08 337.70, 584.04 344.34 C 582.99 350.98, 581.96 354.65, 579.70 360.97 C 577.44 367.30, 575.96 370.53, 572.74 375.96 C 569.52 381.39, 567.52 384.07, 563.62 388.15 C 559.72 392.22, 557.25 393.94, 553.23 396.32 C 549.22 398.70, 547.15 399.39, 543.54 400.05 C 539.92 400.71, 538.28 400.65, 535.15 399.62 C 532.01 398.59, 530.32 397.67, 527.87 394.91 C 525.43 392.16, 524.29 390.37, 522.92 385.85 C 521.55 381.34, 521.13 378.41, 521.02 372.34 C 520.91 366.26, 521.11 362.44, 522.35 355.50 C 523.59 348.55, 524.85 344.61, 527.23 337.62 C 529.61 330.63, 531.25 326.79, 534.24 320.55 C 537.23 314.32, 539.12 311.11, 542.17 306.43 C 545.21 301.76, 547.02 299.85, 549.46 297.19 C 551.89 294.54, 552.74 294.00, 554.34 293.17 C 555.95 292.33, 556.36 292.73, 557.50 293.01 C 558.64 293.29, 558.91 294.12, 560.04 294.56 C 561.18 295.00, 562.21 295.50, 563.17 295.21 C 564.14 294.92, 564.88 294.18, 564.87 293.11" style="stroke: black; fill: black;"/><path d="M 630.29,289.28 C 629.70 290.46, 629.81 291.79, 629.69 294.98 C 629.58 298.17, 629.94 300.31, 629.70 305.22 C 629.46 310.14, 629.25 313.46, 628.51 319.57 C 627.78 325.68, 627.34 328.96, 626.03 335.77 C 624.71 342.58, 623.59 346.60, 621.93 353.61 C 620.27 360.62, 619.24 364.30, 617.74 370.81 C 616.25 377.32, 615.32 380.97, 614.46 386.15 C 613.60 391.33, 612.90 393.84, 613.45 396.71 C 614.00 399.58, 615.27 400.53, 617.21 400.50 C 619.14 400.46, 620.51 399.54, 623.13 396.54 C 625.74 393.55, 627.01 390.91, 630.29 385.52 C 633.58 380.12, 635.58 376.30, 639.55 369.56 C 643.53 362.82, 645.77 358.89, 650.16 351.81 C 654.55 344.74, 656.93 340.96, 661.50 334.18 C 666.07 327.39, 668.49 323.77, 673.01 317.88 C 677.53 311.98, 679.89 309.11, 684.09 304.72 C 688.29 300.32, 690.57 298.42, 694.01 295.89 C 697.45 293.37, 699.10 292.67, 701.28 292.10 C 703.47 291.53, 703.72 291.55, 704.94 293.05 C 706.16 294.56, 706.62 295.93, 707.39 299.64 C 708.16 303.35, 708.66 305.94, 708.79 311.60 C 708.92 317.27, 708.78 321.14, 708.03 327.96 C 707.28 334.78, 706.43 338.63, 705.04 345.72 C 703.65 352.81, 702.74 356.70, 701.08 363.40 C 699.42 370.11, 698.32 373.74, 696.73 379.25 C 695.14 384.75, 694.04 387.26, 693.14 390.91 C 692.23 394.56, 691.83 396.02, 692.19 397.50 C 692.54 398.97, 693.76 399.54, 694.93 398.28 C 696.11 397.03, 696.74 395.17, 698.06 391.22 C 699.38 387.27, 699.65 384.37, 701.53 378.52 C 703.41 372.68, 704.63 368.99, 707.48 361.99 C 710.34 354.98, 712.11 350.99, 715.80 343.48 C 719.50 335.98, 721.75 331.77, 725.97 324.44 C 730.19 317.12, 732.51 313.30, 736.90 306.88 C 741.30 300.46, 743.75 297.35, 747.96 292.34 C 752.17 287.33, 754.49 284.90, 757.96 281.83 C 761.44 278.76, 763.12 277.95, 765.33 277.00 C 767.55 276.05, 767.98 275.95, 769.04 277.08 C 770.10 278.21, 770.28 279.23, 770.63 282.65 C 770.99 286.08, 771.21 288.69, 770.82 294.20 C 770.43 299.71, 769.91 303.27, 768.67 310.22 C 767.44 317.17, 766.41 321.30, 764.66 328.95 C 762.90 336.59, 761.65 340.95, 759.89 348.46 C 758.13 355.97, 756.98 359.86, 755.86 366.50 C 754.75 373.14, 754.21 376.58, 754.30 381.65 C 754.40 386.73, 755.00 388.69, 756.34 391.88 C 757.68 395.06, 759.22 396.30, 761.01 397.60 C 762.81 398.90, 764.33 398.52, 765.30 398.36 C 766.27 398.21, 766.28 397.48, 765.87 396.81 C 765.45 396.15, 764.42 396.35, 763.24 395.05 C 762.06 393.75, 761.14 393.03, 759.95 390.32 C 758.77 387.62, 757.63 386.21, 757.31 381.53 C 757.00 376.84, 757.40 373.40, 758.38 366.90 C 759.35 360.39, 760.46 356.47, 762.19 349.00 C 763.92 341.52, 765.18 337.16, 767.04 329.51 C 768.89 321.86, 769.99 317.75, 771.44 310.75 C 772.89 303.76, 773.63 300.25, 774.30 294.53 C 774.97 288.80, 775.38 286.10, 774.77 282.12 C 774.16 278.13, 773.40 276.35, 771.25 274.61 C 769.10 272.87, 767.09 272.43, 764.02 273.42 C 760.94 274.42, 759.48 276.12, 755.89 279.59 C 752.30 283.06, 750.21 285.56, 746.05 290.77 C 741.89 295.98, 739.47 299.13, 735.09 305.65 C 730.71 312.17, 728.39 316.02, 724.13 323.38 C 719.87 330.75, 717.61 334.97, 713.80 342.48 C 709.99 350.00, 708.20 353.99, 705.08 360.96 C 701.96 367.93, 700.48 371.55, 698.19 377.32 C 695.90 383.10, 694.84 385.82, 693.65 389.82 C 692.45 393.82, 692.06 395.68, 692.21 397.32 C 692.36 398.96, 693.47 399.08, 694.41 398.00 C 695.35 396.92, 695.88 395.52, 696.92 391.92 C 697.95 388.32, 698.24 385.58, 699.57 379.99 C 700.90 374.41, 701.99 370.76, 703.58 364.01 C 705.18 357.25, 706.10 353.36, 707.56 346.22 C 709.02 339.08, 709.94 335.24, 710.87 328.31 C 711.81 321.38, 712.14 317.50, 712.24 311.60 C 712.34 305.69, 712.27 303.03, 711.36 298.80 C 710.46 294.57, 709.89 292.52, 707.71 290.44 C 705.53 288.35, 703.61 287.80, 700.48 288.38 C 697.35 288.96, 695.72 290.43, 692.06 293.35 C 688.40 296.26, 686.36 298.32, 682.18 302.95 C 678.01 307.58, 675.69 310.50, 671.20 316.51 C 666.70 322.51, 664.30 326.15, 659.71 332.97 C 655.12 339.79, 652.73 343.57, 648.25 350.61 C 643.76 357.65, 641.45 361.56, 637.29 368.18 C 633.12 374.79, 630.90 378.52, 627.42 383.68 C 623.95 388.84, 622.04 391.01, 619.91 393.99 C 617.79 396.97, 617.35 398.08, 616.80 398.57 C 616.25 399.06, 616.99 398.83, 617.16 396.44 C 617.33 394.05, 617.00 391.63, 617.64 386.62 C 618.28 381.61, 619.01 377.87, 620.36 371.38 C 621.72 364.90, 622.74 361.21, 624.41 354.20 C 626.07 347.18, 627.23 343.15, 628.68 336.31 C 630.14 329.47, 630.69 326.17, 631.68 320.02 C 632.68 313.86, 633.13 310.54, 633.65 305.52 C 634.17 300.51, 634.49 298.21, 634.29 294.92 C 634.09 291.63, 633.45 290.20, 632.65 289.07 C 631.85 287.94, 630.89 288.10, 630.29 289.28" style="stroke: black; fill: black;"/><path d="M 848.62,294.60 C 848.71 293.61, 848.42 292.67, 847.31 291.59 C 846.20 290.51, 845.23 289.68, 843.08 289.21 C 840.92 288.74, 839.27 288.35, 836.54 289.24 C 833.81 290.13, 832.33 291.19, 829.43 293.65 C 826.54 296.11, 825.23 297.71, 822.06 301.55 C 818.90 305.38, 816.95 307.76, 813.60 312.82 C 810.24 317.88, 808.39 320.82, 805.30 326.85 C 802.22 332.88, 800.54 336.35, 798.17 342.98 C 795.79 349.60, 794.89 353.37, 793.44 359.98 C 791.98 366.59, 791.39 370.05, 790.90 376.03 C 790.40 382.02, 790.33 385.09, 790.97 389.91 C 791.60 394.73, 792.18 396.93, 794.08 400.13 C 795.97 403.32, 797.40 404.71, 800.44 405.90 C 803.49 407.09, 805.60 407.16, 809.30 406.07 C 813.00 404.98, 815.01 403.63, 818.94 400.44 C 822.87 397.26, 825.03 395.13, 828.96 390.14 C 832.89 385.15, 834.90 381.91, 838.59 375.51 C 842.28 369.10, 844.16 365.19, 847.42 358.12 C 850.68 351.05, 852.24 347.24, 854.89 340.16 C 857.53 333.08, 858.61 328.97, 860.62 322.71 C 862.63 316.46, 863.91 313.05, 864.94 308.89 C 865.97 304.72, 866.16 302.89, 865.77 301.88 C 865.39 300.88, 863.84 301.27, 863.01 303.86 C 862.18 306.44, 862.27 309.20, 861.63 314.81 C 860.98 320.43, 860.43 324.78, 859.79 331.92 C 859.14 339.06, 858.66 343.16, 858.41 350.50 C 858.17 357.84, 858.28 361.70, 858.54 368.61 C 858.81 375.52, 858.81 378.99, 859.75 385.05 C 860.69 391.12, 861.62 394.21, 863.25 398.94 C 864.88 403.67, 866.17 405.68, 867.90 408.70 C 869.62 411.73, 870.32 412.67, 871.87 414.08 C 873.42 415.49, 874.50 415.57, 875.66 415.75 C 876.81 415.94, 877.28 415.39, 877.65 415.00 C 878.03 414.62, 877.74 414.14, 877.53 413.81 C 877.31 413.49, 877.14 413.87, 876.60 413.38 C 876.05 412.89, 875.82 412.73, 874.79 411.36 C 873.77 410.00, 873.18 409.28, 871.47 406.57 C 869.77 403.86, 868.08 402.19, 866.27 397.80 C 864.46 393.41, 863.48 390.47, 862.43 384.61 C 861.39 378.75, 861.33 375.31, 861.04 368.51 C 860.75 361.71, 860.63 357.86, 861.00 350.61 C 861.37 343.36, 862.03 339.32, 862.89 332.25 C 863.76 325.19, 864.54 320.87, 865.33 315.29 C 866.12 309.71, 867.02 307.11, 866.86 304.34 C 866.71 301.57, 865.59 300.70, 864.55 301.42 C 863.51 302.15, 862.95 303.86, 861.65 307.96 C 860.35 312.06, 859.86 315.66, 858.06 321.94 C 856.26 328.21, 855.22 332.30, 852.66 339.34 C 850.10 346.38, 848.53 350.15, 845.26 357.12 C 842.00 364.08, 840.07 367.96, 836.34 374.18 C 832.60 380.40, 830.52 383.54, 826.58 388.20 C 822.65 392.87, 820.35 394.75, 816.65 397.51 C 812.95 400.26, 811.02 401.09, 808.08 401.97 C 805.14 402.85, 804.09 402.67, 801.95 401.90 C 799.81 401.13, 798.94 400.62, 797.39 398.12 C 795.83 395.63, 794.93 393.80, 794.20 389.43 C 793.46 385.05, 793.35 382.02, 793.71 376.24 C 794.07 370.46, 794.60 367.01, 795.98 360.53 C 797.36 354.06, 798.25 350.33, 800.61 343.86 C 802.97 337.38, 804.65 333.98, 807.77 328.14 C 810.90 322.30, 812.80 319.44, 816.25 314.65 C 819.70 309.87, 821.77 307.58, 825.04 304.20 C 828.31 300.83, 829.93 299.59, 832.60 297.78 C 835.27 295.98, 836.52 295.71, 838.38 295.18 C 840.24 294.64, 840.72 294.93, 841.92 295.12 C 843.12 295.30, 843.38 295.83, 844.37 296.11 C 845.36 296.40, 846.02 296.84, 846.87 296.54 C 847.73 296.24, 848.53 295.59, 848.62 294.60" style="stroke: black; fill: black;"/><path d="M 918.54,186.72 C 917.76 187.81, 917.31 189.05, 916.92 192.42 C 916.53 195.80, 916.84 198.20, 916.58 203.61 C 916.33 209.01, 916.19 212.07, 915.65 219.45 C 915.11 226.82, 914.70 231.60, 913.88 240.47 C 913.05 249.34, 912.53 254.12, 911.52 263.80 C 910.51 273.49, 909.86 278.69, 908.83 288.90 C 907.80 299.10, 907.15 304.69, 906.36 314.83 C 905.57 324.98, 905.24 330.14, 904.89 339.62 C 904.54 349.11, 904.41 353.82, 904.61 362.27 C 904.80 370.71, 905.09 374.96, 905.88 381.85 C 906.66 388.74, 907.08 391.70, 908.55 396.72 C 910.02 401.74, 910.83 403.91, 913.23 406.94 C 915.64 409.97, 917.26 411.29, 920.58 411.88 C 923.89 412.47, 926.09 411.90, 929.82 409.90 C 933.56 407.90, 935.47 406.04, 939.24 401.86 C 943.01 397.69, 944.85 394.85, 948.67 389.04 C 952.50 383.22, 954.64 379.64, 958.35 372.80 C 962.05 365.95, 963.83 362.00, 967.21 354.83 C 970.59 347.66, 972.14 343.75, 975.24 336.96 C 978.34 330.17, 979.96 326.75, 982.73 320.86 C 985.50 314.97, 986.76 312.19, 989.09 307.51 C 991.42 302.82, 992.47 300.69, 994.36 297.43 C 996.25 294.17, 997.07 293.17, 998.55 291.21 C 1000.02 289.24, 1001.31 288.64, 1001.72 287.62 C 1002.13 286.60, 1001.82 285.91, 1000.59 286.12 C 999.37 286.32, 997.48 286.73, 995.59 288.64 C 993.70 290.55, 992.96 292.14, 991.13 295.66 C 989.30 299.19, 988.57 301.43, 986.43 306.26 C 984.29 311.09, 983.10 313.87, 980.44 319.82 C 977.78 325.77, 976.20 329.20, 973.14 336.00 C 970.07 342.81, 968.52 346.73, 965.14 353.85 C 961.75 360.97, 959.96 364.89, 956.20 371.61 C 952.44 378.33, 950.22 381.87, 946.33 387.46 C 942.44 393.04, 940.43 395.75, 936.76 399.55 C 933.08 403.35, 931.08 404.78, 927.97 406.46 C 924.86 408.14, 923.62 408.31, 921.21 407.97 C 918.80 407.63, 917.92 407.19, 915.92 404.77 C 913.92 402.35, 912.77 400.52, 911.22 395.88 C 909.66 391.24, 909.06 388.30, 908.13 381.56 C 907.20 374.83, 906.85 370.59, 906.55 362.21 C 906.26 353.84, 906.36 349.13, 906.67 339.68 C 906.97 330.24, 907.29 325.09, 908.07 314.97 C 908.85 304.84, 909.50 299.27, 910.56 289.07 C 911.63 278.88, 912.30 273.68, 913.39 264.01 C 914.49 254.33, 915.04 249.55, 916.03 240.69 C 917.03 231.83, 917.54 227.06, 918.35 219.69 C 919.16 212.33, 919.51 209.26, 920.09 203.88 C 920.67 198.49, 921.11 196.15, 921.25 192.77 C 921.40 189.38, 921.36 188.16, 920.82 186.95 C 920.27 185.74, 919.32 185.62, 918.54 186.72" style="stroke: black; fill: black;"/><path d="M 1025.70,303.63 C 1025.20 302.67, 1024.22 301.96, 1022.54 301.41 C 1020.85 300.86, 1019.70 300.58, 1017.27 300.88 C 1014.83 301.18, 1012.93 301.33, 1010.35 302.90 C 1007.76 304.47, 1006.82 305.81, 1004.32 308.71 C 1001.82 311.61, 1000.44 313.33, 997.85 317.39 C 995.27 321.45, 993.84 323.81, 991.38 329.01 C 988.92 334.21, 987.48 337.49, 985.55 343.40 C 983.62 349.32, 982.57 352.46, 981.75 358.58 C 980.92 364.70, 980.78 368.19, 981.42 373.99 C 982.05 379.79, 982.86 382.83, 984.92 387.60 C 986.98 392.36, 988.46 394.51, 991.72 397.80 C 994.98 401.10, 996.99 402.42, 1001.23 404.07 C 1005.46 405.72, 1008.08 406.14, 1012.90 406.07 C 1017.73 406.00, 1020.47 405.41, 1025.35 403.71 C 1030.24 402.01, 1032.76 400.78, 1037.33 397.56 C 1041.91 394.35, 1044.34 392.27, 1048.24 387.66 C 1052.14 383.04, 1053.93 380.20, 1056.82 374.49 C 1059.71 368.78, 1060.91 365.68, 1062.68 359.10 C 1064.46 352.53, 1065.18 348.67, 1065.71 341.62 C 1066.25 334.58, 1066.11 330.60, 1065.36 323.88 C 1064.61 317.15, 1064.03 313.84, 1061.95 308.01 C 1059.86 302.17, 1058.24 299.24, 1054.93 294.68 C 1051.62 290.12, 1049.56 288.21, 1045.38 285.22 C 1041.21 282.24, 1038.62 281.19, 1034.06 279.77 C 1029.49 278.34, 1026.86 277.87, 1022.56 278.12 C 1018.26 278.37, 1015.95 279.33, 1012.55 281.01 C 1009.14 282.70, 1006.64 284.99, 1005.54 286.54 C 1004.43 288.08, 1005.26 289.10, 1007.00 288.73 C 1008.75 288.37, 1011.09 286.06, 1014.25 284.71 C 1017.42 283.36, 1019.07 282.30, 1022.84 281.98 C 1026.60 281.66, 1028.92 281.94, 1033.06 283.10 C 1037.21 284.27, 1039.67 285.16, 1043.58 287.81 C 1047.49 290.47, 1049.45 292.17, 1052.62 296.39 C 1055.79 300.61, 1057.40 303.36, 1059.43 308.92 C 1061.47 314.47, 1062.06 317.66, 1062.81 324.17 C 1063.55 330.67, 1063.70 334.58, 1063.18 341.43 C 1062.65 348.28, 1061.94 352.06, 1060.18 358.42 C 1058.42 364.78, 1057.22 367.77, 1054.38 373.23 C 1051.54 378.70, 1049.76 381.39, 1045.99 385.73 C 1042.22 390.08, 1039.88 392.00, 1035.53 394.95 C 1031.18 397.89, 1028.78 398.96, 1024.25 400.47 C 1019.71 401.98, 1017.20 402.43, 1012.85 402.48 C 1008.50 402.54, 1006.25 402.17, 1002.50 400.76 C 998.75 399.34, 997.04 398.30, 994.11 395.41 C 991.17 392.52, 989.77 390.67, 987.82 386.32 C 985.87 381.97, 985.00 379.13, 984.36 373.66 C 983.72 368.19, 983.81 364.83, 984.62 358.97 C 985.43 353.12, 986.46 350.06, 988.43 344.37 C 990.39 338.68, 991.89 335.46, 994.44 330.52 C 996.98 325.58, 998.45 323.32, 1001.16 319.66 C 1003.87 316.00, 1005.53 314.47, 1007.97 312.21 C 1010.42 309.95, 1011.33 309.38, 1013.38 308.38 C 1015.42 307.38, 1016.50 307.54, 1018.21 307.22 C 1019.92 306.90, 1020.56 306.98, 1021.92 306.78 C 1023.29 306.57, 1024.27 306.83, 1025.03 306.20 C 1025.78 305.58, 1026.20 304.59, 1025.70 303.63" style="stroke: black; fill: black;"/></svg>