<svg xmlns="http://www.w3.org/2000/svg" id="canvas" viewBox="401.097 282.430 689.590 326.712"><path d="M 501.19,368.26 C 500.56 369.30, 500.04 370.16, 500.17 373.44 C 500.30 376.72, 500.96 378.79, 501.83 384.66 C 502.69 390.53, 503.28 394.25, 504.50 402.79 C 505.71 411.33, 506.59 416.70, 507.90 427.35 C 509.22 438.01, 510.18 444.28, 511.08 456.07 C 511.98 467.85, 512.47 474.32, 512.42 486.29 C 512.37 498.25, 512.04 504.56, 510.82 515.88 C 509.61 527.20, 508.86 532.86, 506.34 542.87 C 503.82 552.87, 502.14 557.63, 498.22 565.91 C 494.30 574.18, 491.68 578.01, 486.74 584.22 C 481.80 590.44, 479.20 593.15, 473.50 596.96 C 467.80 600.77, 464.67 602.28, 458.24 603.29 C 451.81 604.30, 447.81 603.95, 441.35 602.00 C 434.89 600.06, 431.37 598.01, 425.93 593.57 C 420.50 589.13, 418.01 586.22, 414.18 579.81 C 410.35 573.39, 408.11 569.83, 406.78 561.51 C 405.46 553.20, 406.36 547.33, 407.57 538.23 C 408.78 529.13, 410.54 523.82, 412.84 516.02 C 415.15 508.23, 418.20 502.74, 419.09 499.25 C 419.97 495.76, 418.89 495.33, 417.26 498.57 C 415.63 501.81, 413.28 507.58, 410.94 515.46 C 408.60 523.34, 406.78 528.69, 405.55 537.96 C 404.32 547.24, 403.42 553.24, 404.77 561.83 C 406.13 570.42, 408.39 574.20, 412.33 580.90 C 416.27 587.61, 418.80 590.69, 424.47 595.35 C 430.14 600.02, 433.85 602.21, 440.68 604.25 C 447.51 606.28, 451.80 606.63, 458.60 605.52 C 465.40 604.41, 468.75 602.73, 474.68 598.71 C 480.61 594.69, 483.23 591.83, 488.25 585.41 C 493.27 579.00, 495.85 575.07, 499.77 566.64 C 503.69 558.20, 505.36 553.37, 507.86 543.25 C 510.37 533.13, 511.10 527.43, 512.31 516.04 C 513.51 504.65, 513.84 498.31, 513.91 486.29 C 513.98 474.28, 513.50 467.78, 512.67 455.95 C 511.83 444.12, 510.90 437.83, 509.74 427.14 C 508.58 416.45, 507.79 411.07, 506.86 402.50 C 505.92 393.92, 505.56 390.15, 505.06 384.28 C 504.57 378.41, 504.75 376.34, 504.40 373.13 C 504.05 369.93, 503.96 369.22, 503.31 368.25 C 502.67 367.28, 501.82 367.23, 501.19 368.26" style="stroke: black; fill: black;"/><path d="M 488.09,285.45 C 487.07 285.57, 486.29 286.22, 485.42 287.25 C 484.56 288.29, 484.24 289.16, 483.76 290.64 C 483.28 292.13, 482.84 293.16, 483.04 294.68 C 483.24 296.20, 483.87 297.54, 484.77 298.26 C 485.67 298.97, 486.65 298.80, 487.55 298.25 C 488.45 297.70, 488.71 296.65, 489.26 295.52 C 489.82 294.39, 490.01 293.83, 490.34 292.62 C 490.67 291.41, 490.89 290.67, 490.92 289.47 C 490.96 288.27, 491.08 287.43, 490.52 286.63 C 489.95 285.82, 489.11 285.32, 488.09 285.45" style="stroke: black; fill: black;"/><path d="M 583.33,394.10 C 583.75 393.02, 583.97 391.59, 583.05 389.63 C 582.13 387.67, 581.19 385.95, 578.72 384.30 C 576.25 382.64, 574.35 381.80, 570.71 381.34 C 567.06 380.88, 564.66 380.80, 560.47 381.98 C 556.29 383.17, 553.98 384.15, 549.78 387.27 C 545.57 390.39, 543.17 392.62, 539.45 397.59 C 535.73 402.57, 533.68 405.85, 531.19 412.13 C 528.70 418.41, 527.61 422.40, 526.99 428.98 C 526.37 435.55, 526.25 439.39, 528.09 445.02 C 529.93 450.65, 531.74 453.61, 536.17 457.14 C 540.61 460.67, 544.12 461.76, 550.26 462.66 C 556.40 463.56, 560.23 463.11, 566.88 461.62 C 573.52 460.12, 577.44 458.79, 583.47 455.19 C 589.49 451.60, 592.69 448.86, 597.02 443.63 C 601.35 438.41, 602.93 434.96, 605.11 429.06 C 607.29 423.15, 607.81 419.82, 607.92 414.12 C 608.03 408.41, 607.50 405.30, 605.66 400.53 C 603.82 395.76, 602.10 393.61, 598.74 390.28 C 595.37 386.95, 592.83 385.62, 588.85 383.87 C 584.87 382.13, 582.27 381.82, 578.83 381.56 C 575.38 381.30, 573.05 381.92, 571.61 382.57 C 570.17 383.22, 570.28 384.18, 571.62 384.82 C 572.96 385.47, 575.17 385.24, 578.31 385.78 C 581.45 386.33, 583.72 386.15, 587.32 387.56 C 590.93 388.96, 593.25 389.97, 596.33 392.80 C 599.42 395.62, 601.00 397.43, 602.74 401.69 C 604.49 405.94, 605.08 408.79, 605.05 414.08 C 605.03 419.37, 604.61 422.56, 602.61 428.15 C 600.61 433.73, 599.13 437.03, 595.04 442.00 C 590.95 446.97, 587.90 449.58, 582.15 452.98 C 576.40 456.39, 572.60 457.63, 566.30 459.02 C 560.00 460.42, 556.33 460.77, 550.65 459.97 C 544.96 459.16, 541.86 458.15, 537.87 455.00 C 533.88 451.84, 532.32 449.33, 530.69 444.18 C 529.06 439.03, 529.09 435.44, 529.71 429.24 C 530.34 423.05, 531.38 419.14, 533.82 413.19 C 536.26 407.24, 538.30 404.07, 541.91 399.48 C 545.52 394.88, 547.95 392.86, 551.87 390.22 C 555.79 387.58, 557.93 386.95, 561.50 386.29 C 565.06 385.63, 566.98 386.24, 569.71 386.92 C 572.43 387.60, 573.36 388.53, 575.14 389.68 C 576.91 390.84, 577.40 391.65, 578.57 392.72 C 579.74 393.79, 580.03 394.76, 580.98 395.03 C 581.94 395.31, 582.92 395.18, 583.33 394.10" style="stroke: black; fill: black;"/><path d="M 637.28,382.81 C 636.69 383.75, 636.18 384.42, 636.39 387.20 C 636.60 389.99, 637.32 391.94, 638.34 396.74 C 639.36 401.55, 640.27 404.92, 641.48 411.23 C 642.70 417.55, 643.24 421.74, 644.42 428.30 C 645.60 434.87, 646.17 438.76, 647.39 444.07 C 648.60 449.38, 648.91 452.01, 650.49 454.84 C 652.08 457.66, 653.25 458.53, 655.31 458.21 C 657.37 457.89, 658.65 456.73, 660.80 453.23 C 662.95 449.73, 663.90 446.69, 666.08 440.71 C 668.26 434.73, 669.11 430.31, 671.71 423.34 C 674.30 416.37, 675.94 411.87, 679.04 405.86 C 682.13 399.86, 684.37 396.90, 687.18 393.33 C 689.99 389.76, 691.10 388.68, 693.11 388.01 C 695.12 387.35, 695.38 387.90, 697.24 390.00 C 699.10 392.11, 700.49 394.35, 702.43 398.55 C 704.37 402.75, 705.14 405.89, 706.94 411.02 C 708.74 416.14, 709.57 419.47, 711.43 424.20 C 713.30 428.92, 713.92 431.57, 716.25 434.64 C 718.58 437.72, 719.97 439.23, 723.09 439.57 C 726.21 439.91, 728.15 438.98, 731.85 436.35 C 735.56 433.71, 737.36 430.96, 741.63 426.38 C 745.90 421.80, 748.39 418.55, 753.21 413.44 C 758.04 408.34, 760.84 405.04, 765.75 400.86 C 770.67 396.68, 773.42 394.71, 777.79 392.54 C 782.15 390.36, 784.15 389.84, 787.58 389.99 C 791.02 390.14, 792.38 390.88, 794.96 393.28 C 797.55 395.69, 798.64 397.66, 800.52 402.02 C 802.40 406.37, 802.94 409.45, 804.37 415.07 C 805.81 420.69, 806.34 424.40, 807.69 430.12 C 809.05 435.83, 809.98 439.17, 811.14 443.63 C 812.29 448.10, 812.52 449.97, 813.46 452.44 C 814.40 454.91, 815.11 455.36, 815.84 455.99 C 816.58 456.61, 816.88 456.49, 817.12 455.58 C 817.36 454.67, 817.51 454.02, 817.03 451.44 C 816.55 448.86, 815.96 447.09, 814.74 442.67 C 813.52 438.25, 812.34 435.01, 810.91 429.33 C 809.48 423.65, 809.02 419.99, 807.58 414.25 C 806.13 408.51, 805.76 405.35, 803.70 400.63 C 801.65 395.92, 800.49 393.46, 797.30 390.68 C 794.10 387.90, 791.89 386.88, 787.72 386.72 C 783.55 386.56, 781.21 387.47, 776.45 389.87 C 771.69 392.27, 769.00 394.41, 763.93 398.72 C 758.86 403.03, 756.04 406.34, 751.10 411.42 C 746.17 416.50, 743.54 419.72, 739.25 424.11 C 734.97 428.50, 732.84 431.00, 729.68 433.36 C 726.53 435.73, 725.51 436.14, 723.47 435.94 C 721.43 435.74, 721.18 434.99, 719.47 432.36 C 717.76 429.74, 716.72 427.34, 714.93 422.82 C 713.14 418.30, 712.30 414.96, 710.52 409.77 C 708.74 404.58, 708.12 401.39, 706.00 396.88 C 703.88 392.38, 702.69 389.65, 699.92 387.25 C 697.16 384.85, 695.21 384.04, 692.18 384.87 C 689.15 385.70, 687.88 387.46, 684.75 391.40 C 681.62 395.35, 679.69 398.40, 676.54 404.58 C 673.39 410.76, 671.72 415.32, 668.99 422.30 C 666.26 429.28, 665.21 433.68, 662.88 439.48 C 660.55 445.28, 658.95 447.98, 657.33 451.32 C 655.71 454.66, 655.45 455.80, 654.79 456.19 C 654.12 456.58, 654.83 455.85, 654.00 453.27 C 653.16 450.69, 651.93 448.38, 650.62 443.28 C 649.30 438.18, 648.59 434.29, 647.44 427.77 C 646.28 421.24, 645.82 417.00, 644.82 410.65 C 643.83 404.30, 643.15 400.85, 642.46 396.01 C 641.77 391.17, 642.01 389.14, 641.39 386.44 C 640.77 383.75, 640.18 383.25, 639.35 382.52 C 638.53 381.80, 637.87 381.87, 637.28 382.81" style="stroke: black; fill: black;"/><path d="M 895.51,404.87 C 896.62 404.48, 897.87 403.55, 898.60 401.69 C 899.34 399.84, 899.85 398.22, 899.19 395.58 C 898.52 392.94, 898.07 390.61, 895.28 388.51 C 892.49 386.41, 889.96 385.62, 885.23 385.07 C 880.50 384.51, 877.31 384.58, 871.63 385.74 C 865.95 386.90, 862.46 388.05, 856.82 390.89 C 851.17 393.73, 848.15 395.81, 843.41 399.94 C 838.67 404.07, 836.27 406.72, 833.10 411.53 C 829.94 416.33, 828.62 419.19, 827.57 423.97 C 826.53 428.75, 826.68 431.49, 827.86 435.43 C 829.04 439.36, 830.32 441.44, 833.47 443.63 C 836.62 445.83, 839.05 446.49, 843.63 446.42 C 848.20 446.36, 851.26 445.56, 856.33 443.29 C 861.40 441.03, 864.11 438.98, 868.99 435.11 C 873.87 431.24, 876.41 428.60, 880.74 423.95 C 885.07 419.29, 887.41 416.32, 890.66 411.83 C 893.92 407.34, 895.36 404.86, 897.02 401.50 C 898.68 398.14, 898.73 396.30, 898.96 395.04 C 899.19 393.79, 898.22 393.71, 898.18 395.22 C 898.14 396.73, 898.17 398.45, 898.77 402.61 C 899.37 406.77, 900.18 410.10, 901.18 416.02 C 902.19 421.95, 902.57 426.11, 903.79 432.24 C 905.00 438.37, 905.84 441.76, 907.25 446.67 C 908.66 451.58, 909.29 454.00, 910.83 456.79 C 912.38 459.59, 913.89 460.07, 914.97 460.66 C 916.05 461.25, 916.39 460.81, 916.21 459.73 C 916.03 458.65, 915.20 458.06, 914.08 455.25 C 912.96 452.44, 911.99 450.42, 910.59 445.69 C 909.19 440.96, 908.18 437.66, 907.07 431.61 C 905.96 425.57, 905.79 421.40, 905.02 415.45 C 904.26 409.50, 904.04 406.13, 903.25 401.86 C 902.45 397.60, 902.30 395.79, 901.03 394.12 C 899.77 392.45, 898.45 392.43, 896.93 393.53 C 895.41 394.64, 895.21 396.35, 893.42 399.64 C 891.64 402.93, 890.98 405.52, 888.00 409.98 C 885.03 414.43, 882.73 417.38, 878.55 421.92 C 874.37 426.46, 871.80 429.03, 867.08 432.67 C 862.36 436.32, 859.66 438.14, 854.96 440.14 C 850.25 442.14, 847.42 442.59, 843.57 442.65 C 839.71 442.71, 838.11 442.10, 835.68 440.44 C 833.25 438.78, 832.37 437.51, 831.40 434.35 C 830.43 431.20, 829.98 428.89, 830.83 424.66 C 831.67 420.42, 832.73 417.67, 835.63 413.17 C 838.53 408.67, 840.81 406.05, 845.32 402.14 C 849.83 398.23, 852.78 396.23, 858.17 393.64 C 863.56 391.06, 866.99 390.07, 872.27 389.21 C 877.55 388.35, 880.68 388.60, 884.58 389.35 C 888.48 390.11, 889.96 391.47, 891.76 392.98 C 893.57 394.50, 893.29 395.45, 893.61 396.91 C 893.92 398.38, 893.45 398.98, 893.35 400.32 C 893.24 401.66, 892.66 402.71, 893.10 403.62 C 893.53 404.53, 894.41 405.25, 895.51 404.87" style="stroke: black; fill: black;"/><path d="M 959.87,286.72 C 959.32 288.18, 959.39 289.30, 959.25 294.06 C 959.12 298.82, 959.14 302.15, 959.19 310.53 C 959.24 318.90, 959.32 324.81, 959.50 335.93 C 959.68 347.05, 959.81 354.20, 960.10 366.13 C 960.40 378.06, 960.29 384.64, 960.97 395.58 C 961.64 406.51, 962.10 412.01, 963.49 420.82 C 964.87 429.64, 965.81 433.53, 967.89 439.67 C 969.97 445.81, 971.64 448.06, 973.91 451.52 C 976.18 454.98, 977.93 456.10, 979.25 456.97 C 980.57 457.84, 981.15 457.23, 980.52 455.86 C 979.89 454.49, 978.20 453.51, 976.09 450.13 C 973.98 446.74, 972.16 444.85, 969.99 438.93 C 967.82 433.01, 966.74 429.23, 965.26 420.54 C 963.78 411.84, 963.29 406.36, 962.59 395.47 C 961.89 384.59, 961.99 378.01, 961.76 366.09 C 961.53 354.18, 961.46 347.02, 961.43 335.91 C 961.40 324.80, 961.45 318.90, 961.61 310.54 C 961.77 302.19, 962.15 298.88, 962.22 294.13 C 962.30 289.37, 962.46 288.26, 961.99 286.78 C 961.52 285.30, 960.41 285.27, 959.87 286.72" style="stroke: black; fill: black;"/><path d="M 1058.10,398.90 C 1059.39 397.87, 1060.71 395.76, 1061.89 392.81 C 1063.06 389.86, 1063.93 387.65, 1063.98 384.14 C 1064.02 380.63, 1063.93 377.85, 1062.12 375.26 C 1060.30 372.67, 1058.47 371.24, 1054.90 371.18 C 1051.33 371.12, 1048.82 372.21, 1044.26 374.96 C 1039.70 377.71, 1036.65 379.95, 1032.10 384.93 C 1027.55 389.92, 1024.94 393.51, 1021.52 399.89 C 1018.11 406.28, 1016.48 410.33, 1015.03 416.87 C 1013.58 423.42, 1013.19 427.09, 1014.27 432.62 C 1015.34 438.15, 1016.70 440.96, 1020.41 444.53 C 1024.12 448.10, 1027.12 449.44, 1032.80 450.46 C 1038.47 451.49, 1042.41 451.11, 1048.78 449.68 C 1055.16 448.24, 1058.95 446.70, 1064.67 443.29 C 1070.40 439.88, 1073.22 437.54, 1077.42 432.64 C 1081.62 427.75, 1083.66 424.52, 1085.66 418.81 C 1087.66 413.11, 1088.02 409.70, 1087.43 404.12 C 1086.83 398.53, 1085.45 395.43, 1082.70 390.88 C 1079.95 386.33, 1077.25 384.45, 1073.69 381.37 C 1070.14 378.29, 1067.99 376.94, 1064.92 375.50 C 1061.85 374.07, 1059.79 374.09, 1058.35 374.21 C 1056.90 374.32, 1056.74 375.10, 1057.69 376.06 C 1058.63 377.02, 1060.34 377.37, 1063.07 379.00 C 1065.79 380.63, 1067.93 381.50, 1071.32 384.22 C 1074.70 386.93, 1077.35 388.53, 1080.00 392.58 C 1082.64 396.62, 1083.91 399.38, 1084.52 404.44 C 1085.13 409.51, 1084.88 412.61, 1083.05 417.90 C 1081.22 423.19, 1079.33 426.28, 1075.38 430.89 C 1071.42 435.50, 1068.72 437.74, 1063.28 440.94 C 1057.84 444.14, 1054.16 445.56, 1048.16 446.90 C 1042.17 448.23, 1038.46 448.51, 1033.30 447.62 C 1028.14 446.74, 1025.64 445.59, 1022.38 442.48 C 1019.11 439.38, 1017.91 437.10, 1016.97 432.10 C 1016.02 427.09, 1016.24 423.64, 1017.63 417.46 C 1019.02 411.28, 1020.59 407.28, 1023.94 401.21 C 1027.29 395.13, 1029.95 391.68, 1034.38 387.07 C 1038.82 382.46, 1042.01 380.43, 1046.12 378.14 C 1050.23 375.85, 1052.55 375.73, 1054.94 375.62 C 1057.32 375.52, 1057.42 375.98, 1058.04 377.61 C 1058.67 379.24, 1058.39 381.07, 1058.07 383.78 C 1057.74 386.50, 1056.94 388.38, 1056.42 391.21 C 1055.90 394.04, 1055.14 396.39, 1055.47 397.93 C 1055.81 399.46, 1056.82 399.92, 1058.10 398.90" style="stroke: black; fill: black;"/></svg>