<svg xmlns="http://www.w3.org/2000/svg" id="canvas" viewBox="403.431 298.258 638.802 237.860"><path d="M 474.31,389.12 C 473.62 390.77, 473.44 393.33, 473.43 397.46 C 473.43 401.59, 473.79 404.23, 474.28 409.75 C 474.78 415.26, 475.24 418.83, 475.90 425.03 C 476.55 431.24, 476.91 434.25, 477.56 440.77 C 478.22 447.30, 478.77 450.88, 479.16 457.64 C 479.55 464.40, 479.71 468.11, 479.52 474.58 C 479.34 481.04, 479.05 484.09, 478.24 489.98 C 477.43 495.87, 476.93 498.98, 475.47 504.05 C 474.01 509.12, 473.13 511.47, 470.95 515.32 C 468.78 519.17, 467.49 520.78, 464.58 523.30 C 461.68 525.83, 459.95 526.79, 456.43 527.95 C 452.92 529.11, 450.84 529.30, 446.99 529.12 C 443.15 528.93, 441.09 528.52, 437.22 527.03 C 433.34 525.55, 431.20 524.26, 427.63 521.68 C 424.05 519.09, 422.19 517.45, 419.35 514.11 C 416.51 510.77, 415.19 508.82, 413.42 504.99 C 411.65 501.15, 411.03 498.95, 410.50 494.95 C 409.97 490.95, 410.08 489.07, 410.77 484.99 C 411.45 480.92, 411.94 478.69, 413.92 474.56 C 415.90 470.43, 417.79 468.12, 420.66 464.33 C 423.54 460.54, 425.67 458.60, 428.28 455.61 C 430.90 452.63, 432.96 450.97, 433.74 449.40 C 434.51 447.82, 433.81 447.02, 432.16 447.74 C 430.52 448.46, 428.43 450.14, 425.52 453.00 C 422.60 455.86, 420.57 458.02, 417.59 462.02 C 414.61 466.02, 412.70 468.52, 410.61 472.99 C 408.52 477.46, 407.90 479.89, 407.13 484.38 C 406.36 488.87, 406.20 491.00, 406.78 495.44 C 407.36 499.87, 408.07 502.34, 410.02 506.56 C 411.96 510.77, 413.43 512.89, 416.50 516.53 C 419.58 520.17, 421.53 521.92, 425.40 524.75 C 429.26 527.57, 431.54 528.99, 435.82 530.65 C 440.10 532.32, 442.44 532.87, 446.81 533.06 C 451.19 533.25, 453.65 533.02, 457.68 531.61 C 461.72 530.20, 463.75 528.94, 466.98 526.00 C 470.22 523.06, 471.58 521.15, 473.85 516.92 C 476.12 512.69, 476.92 510.16, 478.34 504.85 C 479.76 499.53, 480.19 496.38, 480.96 490.34 C 481.72 484.30, 481.99 481.22, 482.15 474.65 C 482.31 468.08, 482.13 464.32, 481.76 457.49 C 481.38 450.67, 480.83 447.07, 480.27 440.52 C 479.70 433.97, 479.44 430.96, 478.94 424.75 C 478.45 418.54, 478.12 414.95, 477.78 409.48 C 477.44 404.01, 477.42 401.44, 477.24 397.38 C 477.07 393.32, 477.49 390.85, 476.90 389.20 C 476.31 387.55, 475.01 387.46, 474.31 389.12" style="stroke: black; fill: black;"/><path d="M 497.13,369.55 C 496.43 370.07, 496.14 370.57, 495.92 372.04 C 495.70 373.52, 495.38 374.58, 496.02 376.94 C 496.66 379.30, 497.40 380.91, 499.12 383.84 C 500.84 386.78, 502.14 388.69, 504.64 391.63 C 507.13 394.56, 508.42 395.93, 511.60 398.51 C 514.79 401.09, 516.76 402.35, 520.57 404.54 C 524.37 406.72, 526.49 407.98, 530.64 409.46 C 534.80 410.94, 537.10 411.39, 541.34 411.94 C 545.58 412.48, 547.95 412.59, 551.84 412.18 C 555.73 411.76, 557.71 411.51, 560.77 409.87 C 563.84 408.24, 565.41 406.86, 567.18 404.02 C 568.95 401.18, 569.60 399.20, 569.61 395.67 C 569.62 392.14, 569.06 390.12, 567.23 386.36 C 565.39 382.60, 563.93 380.45, 560.43 376.86 C 556.93 373.27, 554.56 371.41, 549.72 368.42 C 544.87 365.44, 541.99 363.95, 536.21 361.94 C 530.43 359.93, 526.92 359.23, 520.82 358.38 C 514.71 357.52, 511.21 357.54, 505.68 357.65 C 500.15 357.76, 497.28 358.19, 493.19 358.92 C 489.10 359.65, 486.74 360.41, 485.24 361.29 C 483.74 362.17, 484.00 363.14, 485.69 363.32 C 487.38 363.50, 489.67 362.67, 493.68 362.18 C 497.70 361.69, 500.42 361.03, 505.76 360.85 C 511.11 360.68, 514.53 360.54, 520.41 361.32 C 526.30 362.11, 529.69 362.82, 535.20 364.80 C 540.70 366.79, 543.44 368.31, 547.93 371.24 C 552.41 374.18, 554.58 376.09, 557.64 379.49 C 560.69 382.88, 561.81 384.99, 563.22 388.22 C 564.63 391.44, 564.75 392.99, 564.69 395.61 C 564.63 398.24, 564.14 399.36, 562.90 401.36 C 561.66 403.37, 560.80 404.36, 558.48 405.64 C 556.17 406.91, 554.65 407.32, 551.32 407.75 C 548.00 408.18, 545.70 408.21, 541.84 407.78 C 537.98 407.34, 535.86 406.95, 532.03 405.58 C 528.20 404.21, 526.19 403.02, 522.69 400.92 C 519.19 398.82, 517.30 397.57, 514.53 395.08 C 511.75 392.59, 510.72 391.31, 508.81 388.45 C 506.90 385.59, 506.24 383.53, 504.97 380.77 C 503.71 378.02, 503.34 376.58, 502.50 374.68 C 501.66 372.78, 501.38 372.32, 500.76 371.28 C 500.14 370.23, 500.12 369.81, 499.39 369.47 C 498.67 369.12, 497.82 369.03, 497.13 369.55" style="stroke: black; fill: black;"/><path d="M 584.95,375.68 C 584.16 376.90, 583.91 378.99, 583.82 381.55 C 583.73 384.12, 584.02 385.79, 584.50 388.50 C 584.98 391.21, 585.29 392.85, 586.22 395.12 C 587.14 397.38, 587.79 398.60, 589.14 399.81 C 590.50 401.03, 591.45 401.22, 592.99 401.18 C 594.53 401.14, 595.33 400.75, 596.86 399.61 C 598.39 398.46, 599.30 397.56, 600.64 395.45 C 601.98 393.34, 602.33 391.49, 603.54 389.05 C 604.75 386.61, 605.09 385.35, 606.70 383.25 C 608.32 381.14, 609.44 380.25, 611.61 378.51 C 613.79 376.77, 615.10 375.72, 617.59 374.54 C 620.08 373.36, 621.30 372.90, 624.07 372.60 C 626.84 372.30, 628.57 372.46, 631.45 373.04 C 634.32 373.61, 635.77 374.15, 638.46 375.47 C 641.15 376.79, 642.50 377.76, 644.91 379.64 C 647.31 381.51, 648.48 382.85, 650.48 384.82 C 652.48 386.80, 653.10 387.74, 654.90 389.51 C 656.70 391.27, 657.63 392.43, 659.48 393.65 C 661.34 394.87, 662.33 395.29, 664.18 395.62 C 666.02 395.95, 666.80 395.74, 668.72 395.32 C 670.64 394.89, 671.75 394.54, 673.77 393.50 C 675.80 392.45, 676.78 391.55, 678.85 390.10 C 680.92 388.65, 681.80 387.67, 684.12 386.25 C 686.44 384.83, 687.70 384.13, 690.45 383.02 C 693.21 381.90, 694.76 381.41, 697.90 380.67 C 701.05 379.93, 702.73 379.56, 706.20 379.31 C 709.66 379.06, 711.52 378.97, 715.24 379.41 C 718.96 379.84, 720.93 380.38, 724.80 381.48 C 728.66 382.57, 730.64 383.33, 734.55 384.88 C 738.46 386.44, 740.42 387.32, 744.34 389.27 C 748.26 391.21, 750.55 392.65, 754.15 394.62 C 757.75 396.58, 759.50 397.75, 762.35 399.10 C 765.20 400.45, 766.97 401.27, 768.40 401.36 C 769.83 401.44, 770.26 400.75, 769.49 399.52 C 768.71 398.30, 767.18 396.98, 764.52 395.24 C 761.86 393.49, 759.87 392.71, 756.19 390.79 C 752.51 388.87, 750.13 387.57, 746.10 385.65 C 742.08 383.72, 740.08 382.80, 736.06 381.16 C 732.03 379.51, 730.04 378.66, 725.99 377.43 C 721.94 376.20, 719.83 375.56, 715.82 374.98 C 711.81 374.41, 709.74 374.42, 705.95 374.55 C 702.15 374.68, 700.34 375.00, 696.86 375.63 C 693.38 376.27, 691.70 376.70, 688.54 377.72 C 685.38 378.74, 683.78 379.37, 681.07 380.74 C 678.37 382.10, 677.16 383.09, 675.02 384.54 C 672.88 386.00, 671.97 386.79, 670.36 388.01 C 668.75 389.23, 668.02 389.93, 666.96 390.63 C 665.89 391.33, 665.88 391.73, 665.04 391.50 C 664.20 391.27, 663.99 390.68, 662.77 389.48 C 661.56 388.28, 660.63 387.27, 658.97 385.51 C 657.31 383.75, 656.63 382.73, 654.46 380.69 C 652.30 378.65, 650.89 377.31, 648.14 375.32 C 645.40 373.33, 643.87 372.23, 640.74 370.74 C 637.61 369.25, 635.92 368.57, 632.48 367.87 C 629.04 367.18, 626.96 366.93, 623.52 367.26 C 620.09 367.60, 618.38 368.19, 615.31 369.54 C 612.24 370.89, 610.82 372.07, 608.18 374.02 C 605.54 375.98, 604.26 377.00, 602.10 379.30 C 599.94 381.59, 598.99 382.99, 597.36 385.51 C 595.73 388.03, 594.92 389.71, 593.96 391.90 C 593.01 394.09, 592.89 395.15, 592.60 396.47 C 592.31 397.80, 592.47 398.32, 592.52 398.54 C 592.58 398.76, 592.86 398.64, 592.87 397.59 C 592.87 396.53, 592.87 395.35, 592.53 393.27 C 592.18 391.19, 591.69 389.68, 591.15 387.19 C 590.60 384.71, 590.50 383.19, 589.82 380.84 C 589.14 378.49, 588.74 376.48, 587.77 375.45 C 586.79 374.42, 585.74 374.46, 584.95 375.68" style="stroke: black; fill: black;"/><path d="M 831.82,380.03 C 830.96 379.00, 829.64 377.96, 826.93 377.27 C 824.22 376.59, 822.20 376.52, 818.27 376.60 C 814.35 376.69, 811.64 376.88, 807.31 377.69 C 802.97 378.50, 800.48 379.14, 796.60 380.66 C 792.71 382.18, 790.71 383.13, 787.88 385.28 C 785.05 387.44, 783.58 388.80, 782.45 391.44 C 781.32 394.07, 781.47 395.90, 782.22 398.47 C 782.98 401.05, 783.90 402.57, 786.22 404.32 C 788.54 406.06, 790.42 406.68, 793.83 407.22 C 797.23 407.77, 799.32 407.61, 803.24 407.05 C 807.16 406.49, 809.33 405.85, 813.43 404.43 C 817.53 403.01, 819.80 401.99, 823.75 399.95 C 827.69 397.91, 829.72 396.48, 833.15 394.24 C 836.58 392.00, 838.63 390.52, 840.88 388.77 C 843.14 387.02, 843.53 386.01, 844.43 385.47 C 845.33 384.94, 845.17 385.19, 845.39 386.08 C 845.61 386.98, 845.24 387.71, 845.55 389.95 C 845.86 392.18, 845.85 394.26, 846.94 397.26 C 848.04 400.26, 849.22 402.28, 851.02 404.94 C 852.82 407.61, 854.01 408.92, 855.95 410.59 C 857.89 412.26, 859.45 413.07, 860.72 413.29 C 862.00 413.51, 862.47 412.92, 862.33 411.70 C 862.19 410.49, 861.13 409.25, 860.01 407.22 C 858.88 405.19, 857.98 404.04, 856.69 401.55 C 855.41 399.06, 854.63 397.46, 853.58 394.76 C 852.53 392.06, 852.56 390.24, 851.45 388.05 C 850.34 385.86, 849.59 385.01, 848.04 383.82 C 846.48 382.64, 845.73 382.00, 843.69 382.12 C 841.64 382.24, 840.44 382.74, 837.82 384.42 C 835.20 386.10, 833.78 388.18, 830.58 390.54 C 827.38 392.89, 825.51 394.27, 821.80 396.21 C 818.10 398.15, 815.87 399.04, 812.05 400.21 C 808.23 401.39, 806.14 401.82, 802.68 402.08 C 799.22 402.35, 797.45 401.98, 794.75 401.54 C 792.04 401.10, 790.83 400.76, 789.17 399.87 C 787.52 398.98, 786.98 398.38, 786.48 397.09 C 785.97 395.80, 785.77 395.00, 786.64 393.42 C 787.51 391.84, 788.49 390.90, 790.81 389.20 C 793.14 387.51, 794.81 386.29, 798.27 384.93 C 801.73 383.57, 804.11 383.02, 808.11 382.41 C 812.12 381.79, 814.69 381.82, 818.29 381.88 C 821.88 381.94, 823.52 382.60, 826.10 382.72 C 828.69 382.84, 830.07 382.99, 831.22 382.46 C 832.36 381.92, 832.68 381.07, 831.82 380.03" style="stroke: black; fill: black;"/><path d="M 898.63,302.39 C 898.04 303.85, 898.05 305.78, 898.13 309.61 C 898.20 313.45, 898.52 316.17, 899.02 321.55 C 899.52 326.92, 900.01 330.37, 900.63 336.50 C 901.25 342.63, 901.46 345.95, 902.13 352.21 C 902.79 358.47, 903.12 361.60, 903.95 367.80 C 904.79 374.00, 905.28 377.32, 906.30 383.22 C 907.32 389.11, 907.70 392.00, 909.06 397.27 C 910.42 402.54, 911.21 405.15, 913.11 409.58 C 915.00 414.01, 916.35 416.17, 918.54 419.41 C 920.72 422.66, 922.00 424.08, 924.03 425.78 C 926.06 427.49, 927.54 427.79, 928.69 427.94 C 929.85 428.09, 930.15 427.55, 929.81 426.52 C 929.47 425.50, 928.58 424.71, 927.01 422.81 C 925.43 420.91, 924.09 419.95, 921.94 417.02 C 919.78 414.10, 918.21 412.27, 916.23 408.16 C 914.24 404.05, 913.43 401.57, 912.01 396.48 C 910.58 391.39, 910.17 388.53, 909.10 382.72 C 908.04 376.91, 907.52 373.59, 906.69 367.43 C 905.86 361.27, 905.53 358.17, 904.96 351.93 C 904.38 345.69, 904.28 342.35, 903.82 336.22 C 903.37 330.09, 903.01 326.63, 902.69 321.26 C 902.36 315.90, 902.51 313.20, 902.19 309.40 C 901.87 305.61, 901.80 303.69, 901.09 302.28 C 900.37 300.88, 899.22 300.92, 898.63 302.39" style="stroke: black; fill: black;"/><path d="M 1008.59,390.60 C 1008.26 389.41, 1007.57 387.93, 1005.49 386.68 C 1003.42 385.42, 1001.66 384.89, 998.23 384.32 C 994.80 383.74, 992.48 383.42, 988.33 383.82 C 984.18 384.22, 981.69 384.99, 977.47 386.31 C 973.26 387.62, 970.85 388.42, 967.25 390.39 C 963.65 392.36, 961.84 393.52, 959.47 396.16 C 957.11 398.80, 956.06 400.49, 955.43 403.60 C 954.80 406.72, 954.88 408.76, 956.31 411.76 C 957.74 414.75, 959.40 416.14, 962.58 418.57 C 965.75 421.00, 967.85 422.12, 972.19 423.92 C 976.54 425.71, 979.18 426.56, 984.30 427.54 C 989.41 428.51, 992.47 428.72, 997.77 428.79 C 1003.07 428.87, 1005.86 428.67, 1010.81 427.91 C 1015.75 427.15, 1018.31 426.55, 1022.49 424.99 C 1026.67 423.44, 1028.69 422.49, 1031.72 420.12 C 1034.74 417.76, 1036.14 416.22, 1037.63 413.17 C 1039.12 410.12, 1039.39 408.18, 1039.16 404.89 C 1038.93 401.61, 1038.26 399.49, 1036.49 396.75 C 1034.72 394.01, 1032.03 391.91, 1030.32 391.21 C 1028.61 390.50, 1027.65 391.55, 1027.93 393.21 C 1028.20 394.87, 1030.49 397.07, 1031.69 399.51 C 1032.90 401.95, 1033.63 403.07, 1033.96 405.41 C 1034.28 407.74, 1034.29 408.88, 1033.31 411.17 C 1032.32 413.45, 1031.48 414.76, 1029.04 416.82 C 1026.61 418.88, 1024.88 419.95, 1021.13 421.47 C 1017.37 422.99, 1014.92 423.66, 1010.26 424.43 C 1005.60 425.20, 1002.87 425.41, 997.83 425.31 C 992.78 425.21, 989.83 424.95, 985.04 423.91 C 980.24 422.87, 977.76 421.92, 973.85 420.11 C 969.94 418.31, 968.09 417.00, 965.49 414.88 C 962.89 412.75, 961.94 411.56, 960.86 409.50 C 959.78 407.43, 959.65 406.59, 960.09 404.57 C 960.52 402.54, 961.16 401.42, 963.03 399.37 C 964.90 397.33, 966.28 396.09, 969.43 394.34 C 972.57 392.60, 974.93 391.75, 978.77 390.65 C 982.62 389.56, 984.96 388.95, 988.64 388.86 C 992.33 388.76, 994.25 389.63, 997.20 390.18 C 1000.15 390.73, 1001.39 391.13, 1003.38 391.61 C 1005.37 392.10, 1006.11 392.81, 1007.16 392.60 C 1008.20 392.40, 1008.92 391.78, 1008.59 390.60" style="stroke: black; fill: black;"/></svg>