<svg xmlns="http://www.w3.org/2000/svg" id="canvas" viewBox="416.488 272.439 621.216 311.983"><path d="M 506.40,393.86 C 505.46 394.84, 505.01 395.89, 503.81 399.42 C 502.62 402.95, 502.12 405.22, 500.42 411.51 C 498.72 417.80, 497.78 422.12, 495.32 430.87 C 492.86 439.62, 491.33 445.09, 488.12 455.27 C 484.91 465.45, 483.16 471.04, 479.29 481.77 C 475.42 492.50, 473.10 498.54, 468.78 508.91 C 464.46 519.28, 462.05 524.58, 457.69 533.61 C 453.34 542.63, 451.06 546.94, 447.00 554.03 C 442.93 561.13, 440.73 564.47, 437.38 569.07 C 434.03 573.66, 432.43 575.12, 430.25 577.00 C 428.06 578.88, 427.54 578.85, 426.45 578.48 C 425.35 578.11, 425.27 577.91, 424.79 575.15 C 424.31 572.40, 424.10 569.51, 424.05 564.71 C 424.00 559.91, 424.30 556.03, 424.53 551.16 C 424.76 546.29, 425.62 542.60, 425.21 540.37 C 424.80 538.14, 423.44 537.94, 422.49 540.03 C 421.54 542.12, 421.04 545.87, 420.45 550.82 C 419.85 555.76, 419.52 559.62, 419.52 564.74 C 419.52 569.85, 419.22 573.13, 420.46 576.39 C 421.70 579.65, 423.32 580.40, 425.70 581.04 C 428.08 581.68, 429.61 581.71, 432.35 579.59 C 435.09 577.48, 436.15 575.41, 439.42 570.48 C 442.68 565.56, 444.73 562.21, 448.69 554.98 C 452.65 547.75, 454.90 543.42, 459.21 534.33 C 463.52 525.24, 465.92 519.92, 470.24 509.52 C 474.56 499.12, 476.89 493.06, 480.81 482.32 C 484.73 471.58, 486.52 465.99, 489.86 455.83 C 493.20 445.67, 494.83 440.21, 497.51 431.51 C 500.20 422.82, 501.31 418.55, 503.29 412.36 C 505.27 406.16, 506.35 404.12, 507.40 400.55 C 508.44 396.99, 508.71 395.87, 508.51 394.53 C 508.31 393.19, 507.34 392.88, 506.40 393.86" style="stroke: black; fill: black;"/><path d="M 517.86,279.74 C 518.56 279.54, 518.21 279.06, 517.87 279.06 C 517.53 279.06, 516.69 279.03, 516.16 279.73 C 515.63 280.44, 514.45 281.42, 515.23 282.58 C 516.01 283.75, 518.19 285.75, 520.06 285.56 C 521.93 285.37, 524.23 283.56, 524.56 281.62 C 524.89 279.67, 523.22 276.86, 521.72 275.84 C 520.22 274.81, 518.58 276.04, 517.05 276.47 C 515.52 276.91, 514.61 277.28, 514.07 278.00 C 513.53 278.72, 513.59 279.73, 514.35 280.07 C 515.10 280.42, 517.15 279.94, 517.86 279.74" style="stroke: black; fill: black;"/><path d="M 574.65,370.38 C 574.37 369.20, 573.60 368.03, 571.76 366.63 C 569.92 365.24, 568.49 363.89, 565.45 363.43 C 562.41 362.96, 560.14 362.89, 556.56 364.32 C 552.99 365.75, 551.16 367.03, 547.57 370.58 C 543.98 374.13, 542.11 376.86, 538.62 382.08 C 535.12 387.29, 532.73 390.67, 530.10 396.63 C 527.48 402.60, 526.27 406.20, 525.49 411.91 C 524.72 417.63, 524.68 420.88, 526.22 425.21 C 527.76 429.53, 529.37 431.50, 533.19 433.55 C 537.01 435.60, 540.03 435.85, 545.31 435.47 C 550.60 435.09, 553.77 434.41, 559.63 431.64 C 565.49 428.87, 568.85 426.56, 574.61 421.62 C 580.38 416.67, 583.59 413.27, 588.43 406.92 C 593.28 400.58, 595.71 396.67, 598.83 389.91 C 601.94 383.15, 603.32 379.18, 604.01 373.13 C 604.70 367.07, 604.33 363.98, 602.28 359.63 C 600.22 355.29, 597.91 353.50, 593.71 351.42 C 589.51 349.34, 586.17 349.36, 581.29 349.23 C 576.41 349.10, 573.33 349.79, 569.32 350.77 C 565.32 351.75, 563.49 352.70, 561.27 354.12 C 559.04 355.54, 558.63 356.84, 558.21 357.85 C 557.78 358.86, 558.16 359.16, 559.15 359.16 C 560.13 359.16, 560.86 358.66, 563.12 357.85 C 565.38 357.04, 566.79 356.08, 570.43 355.12 C 574.06 354.15, 576.92 353.17, 581.30 353.02 C 585.68 352.88, 588.66 352.81, 592.33 354.38 C 596.01 355.95, 597.85 357.20, 599.66 360.89 C 601.48 364.59, 602.02 367.24, 601.41 372.84 C 600.81 378.44, 599.61 382.38, 596.64 388.91 C 593.67 395.44, 591.29 399.33, 586.55 405.48 C 581.82 411.64, 578.60 414.98, 572.98 419.68 C 567.35 424.39, 564.00 426.50, 558.42 429.02 C 552.84 431.54, 549.83 431.95, 545.09 432.27 C 540.35 432.59, 537.90 432.24, 534.73 430.62 C 531.56 429.00, 530.48 427.82, 529.24 424.16 C 528.00 420.50, 527.80 417.59, 528.53 412.33 C 529.26 407.08, 530.33 403.55, 532.89 397.87 C 535.45 392.20, 537.86 388.84, 541.33 383.94 C 544.79 379.05, 546.84 376.38, 550.22 373.40 C 553.59 370.41, 555.37 369.82, 558.19 369.04 C 561.01 368.26, 562.15 369.01, 564.32 369.51 C 566.49 370.01, 567.27 370.93, 569.05 371.54 C 570.82 372.15, 572.07 372.78, 573.19 372.55 C 574.31 372.32, 574.94 371.57, 574.65 370.38" style="stroke: black; fill: black;"/><path d="M 672.85,352.84 C 672.04 352.74, 671.39 352.06, 669.89 353.55 C 668.38 355.04, 667.45 356.51, 665.33 360.29 C 663.21 364.07, 662.18 366.87, 659.30 372.45 C 656.41 378.02, 654.32 381.79, 650.89 388.17 C 647.46 394.55, 645.12 398.55, 642.16 404.34 C 639.21 410.14, 637.90 412.88, 636.12 417.14 C 634.33 421.41, 633.46 423.82, 633.24 425.66 C 633.03 427.51, 633.96 427.85, 635.05 426.38 C 636.15 424.90, 636.78 422.44, 638.72 418.29 C 640.65 414.15, 641.79 411.40, 644.74 405.66 C 647.69 399.92, 649.94 395.88, 653.46 389.58 C 656.99 383.28, 659.17 379.52, 662.37 374.16 C 665.57 368.79, 667.21 366.31, 669.47 362.75 C 671.72 359.19, 672.75 358.08, 673.64 356.34 C 674.54 354.60, 674.11 354.73, 673.95 354.03 C 673.79 353.33, 673.66 352.93, 672.85 352.84" style="stroke: black; fill: black;"/><path d="M 641.44,425.18 C 643.08 423.56, 644.17 420.33, 647.46 415.74 C 650.74 411.15, 653.18 407.79, 657.89 402.24 C 662.60 396.70, 665.87 393.07, 671.01 388.02 C 676.15 382.97, 678.88 380.53, 683.60 377.00 C 688.31 373.46, 690.76 372.00, 694.60 370.35 C 698.45 368.69, 700.31 368.64, 702.81 368.74 C 705.31 368.84, 705.95 369.17, 707.10 370.83 C 708.25 372.49, 708.57 373.63, 708.54 377.03 C 708.52 380.44, 708.08 383.17, 706.96 387.86 C 705.84 392.54, 704.83 395.56, 702.93 400.46 C 701.03 405.36, 699.14 408.17, 697.48 412.36 C 695.81 416.54, 694.37 418.99, 694.59 421.38 C 694.82 423.77, 696.16 424.85, 698.59 424.31 C 701.02 423.76, 702.38 422.00, 706.73 418.66 C 711.08 415.32, 714.12 412.55, 720.35 407.59 C 726.58 402.62, 730.71 398.94, 737.88 393.82 C 745.06 388.71, 749.30 385.81, 756.22 382.00 C 763.14 378.18, 766.93 376.55, 772.49 374.76 C 778.05 372.98, 780.65 372.81, 784.02 373.07 C 787.39 373.34, 788.18 373.95, 789.36 376.07 C 790.53 378.20, 790.57 379.67, 789.88 383.70 C 789.20 387.73, 788.21 390.83, 785.91 396.21 C 783.62 401.60, 781.39 404.98, 778.40 410.61 C 775.41 416.24, 773.52 419.68, 770.97 424.35 C 768.42 429.01, 767.08 430.89, 765.65 433.94 C 764.22 436.99, 764.00 438.00, 763.84 439.60 C 763.67 441.20, 764.44 441.50, 764.82 441.95 C 765.20 442.40, 765.45 442.16, 765.74 441.85 C 766.04 441.53, 765.58 441.59, 766.31 440.38 C 767.04 439.17, 767.84 438.69, 769.37 435.79 C 770.91 432.90, 771.59 430.65, 773.96 425.91 C 776.33 421.18, 778.23 417.79, 781.24 412.12 C 784.25 406.45, 786.59 403.13, 789.02 397.56 C 791.46 391.99, 792.76 388.91, 793.42 384.25 C 794.09 379.60, 794.17 377.12, 792.34 374.27 C 790.51 371.43, 788.42 370.41, 784.29 370.03 C 780.16 369.64, 777.52 370.34, 771.69 372.34 C 765.85 374.33, 762.15 376.09, 755.12 380.00 C 748.08 383.91, 743.83 386.84, 736.53 391.90 C 729.23 396.97, 724.99 400.53, 718.60 405.33 C 712.22 410.13, 708.88 412.67, 704.63 415.91 C 700.37 419.15, 698.72 420.34, 697.33 421.53 C 695.94 422.72, 696.86 423.36, 697.67 421.85 C 698.48 420.34, 699.63 418.01, 701.40 414.00 C 703.16 410.00, 704.61 406.86, 706.51 401.82 C 708.40 396.79, 709.59 393.80, 710.86 388.83 C 712.14 383.86, 713.01 381.07, 712.89 376.98 C 712.78 372.90, 712.28 370.82, 710.30 368.39 C 708.32 365.95, 706.41 365.01, 703.00 364.81 C 699.60 364.62, 697.49 365.41, 693.28 367.41 C 689.06 369.41, 686.75 371.06, 681.92 374.80 C 677.09 378.54, 674.35 380.97, 669.13 386.10 C 663.90 391.23, 660.59 394.85, 655.79 400.45 C 650.99 406.05, 648.45 409.42, 645.14 414.09 C 641.84 418.77, 640.01 421.61, 639.27 423.83 C 638.53 426.05, 639.81 426.79, 641.44 425.18" style="stroke: black; fill: black;"/><path d="M 879.58,378.71 C 879.27 377.71, 878.61 376.83, 876.95 375.95 C 875.30 375.06, 874.01 374.37, 871.30 374.30 C 868.59 374.22, 867.02 374.38, 863.40 375.59 C 859.79 376.80, 857.53 377.74, 853.22 380.36 C 848.90 382.98, 846.24 384.91, 841.82 388.68 C 837.40 392.46, 834.91 394.86, 831.10 399.24 C 827.30 403.61, 825.27 406.18, 822.80 410.55 C 820.33 414.91, 819.09 417.28, 818.76 421.04 C 818.43 424.81, 818.96 427.06, 821.14 429.37 C 823.31 431.68, 825.50 432.40, 829.64 432.61 C 833.78 432.82, 836.54 432.14, 841.83 430.41 C 847.13 428.68, 850.26 427.21, 856.11 423.96 C 861.96 420.72, 865.38 418.31, 871.07 414.18 C 876.76 410.06, 880.15 407.13, 884.56 403.33 C 888.98 399.52, 891.39 397.50, 893.15 395.17 C 894.92 392.84, 894.20 391.56, 893.38 391.67 C 892.56 391.77, 891.16 392.81, 889.07 395.70 C 886.98 398.59, 885.47 401.56, 882.93 406.12 C 880.40 410.69, 878.48 413.98, 876.41 418.54 C 874.34 423.11, 873.46 425.34, 872.57 428.96 C 871.69 432.58, 871.78 434.41, 871.99 436.65 C 872.20 438.90, 873.01 439.53, 873.62 440.19 C 874.23 440.85, 874.64 440.64, 875.03 439.96 C 875.42 439.28, 875.22 438.76, 875.58 436.79 C 875.95 434.81, 875.93 433.38, 876.87 430.09 C 877.80 426.79, 878.23 424.65, 880.25 420.31 C 882.28 415.97, 884.43 412.87, 886.98 408.40 C 889.53 403.93, 891.54 401.26, 893.00 397.96 C 894.47 394.66, 894.80 393.00, 894.29 391.90 C 893.78 390.80, 892.84 390.68, 890.47 392.48 C 888.09 394.28, 886.62 397.02, 882.41 400.91 C 878.19 404.79, 874.94 407.80, 869.39 411.88 C 863.84 415.96, 860.39 418.28, 854.67 421.31 C 848.95 424.34, 845.76 425.57, 840.78 427.03 C 835.81 428.49, 833.16 428.66, 829.78 428.59 C 826.41 428.53, 825.33 428.12, 823.91 426.70 C 822.48 425.27, 822.26 424.36, 822.66 421.47 C 823.05 418.58, 823.68 416.27, 825.87 412.26 C 828.06 408.24, 829.97 405.59, 833.60 401.41 C 837.24 397.24, 839.73 394.87, 844.06 391.37 C 848.38 387.87, 851.06 386.06, 855.22 383.92 C 859.37 381.78, 861.64 381.36, 864.82 380.67 C 868.00 379.98, 869.01 380.40, 871.12 380.47 C 873.23 380.54, 873.88 380.90, 875.36 381.00 C 876.84 381.11, 877.66 381.44, 878.50 380.98 C 879.34 380.52, 879.89 379.72, 879.58 378.71" style="stroke: black; fill: black;"/><path d="M 988.60,288.14 C 987.86 288.57, 987.71 288.38, 986.67 290.65 C 985.64 292.92, 985.54 294.68, 983.43 299.47 C 981.31 304.27, 979.77 307.55, 976.10 314.61 C 972.44 321.67, 969.95 326.20, 965.10 334.79 C 960.25 343.37, 957.02 348.47, 951.85 357.54 C 946.68 366.60, 943.82 371.66, 939.26 380.12 C 934.70 388.58, 932.31 392.72, 929.05 399.84 C 925.78 406.97, 924.51 410.59, 922.93 415.76 C 921.36 420.92, 921.31 422.74, 921.18 425.69 C 921.05 428.64, 921.80 429.55, 922.29 430.50 C 922.78 431.45, 923.22 431.35, 923.62 430.44 C 924.03 429.53, 923.94 428.75, 924.31 425.96 C 924.68 423.17, 924.15 421.53, 925.48 416.48 C 926.81 411.42, 927.87 407.79, 930.95 400.69 C 934.03 393.59, 936.38 389.44, 940.88 380.99 C 945.38 372.54, 948.24 367.49, 953.45 358.45 C 958.65 349.42, 961.89 344.33, 966.89 335.82 C 971.89 327.30, 974.45 322.82, 978.44 315.88 C 982.42 308.94, 984.28 305.85, 986.80 301.12 C 989.33 296.39, 990.34 294.77, 991.05 292.24 C 991.76 289.71, 990.85 289.31, 990.36 288.49 C 989.87 287.67, 989.33 287.71, 988.60 288.14" style="stroke: black; fill: black;"/><path d="M 1021.65,388.86 C 1021.79 387.85, 1021.51 386.31, 1020.07 385.20 C 1018.63 384.09, 1017.23 382.94, 1014.45 383.33 C 1011.67 383.72, 1009.80 384.73, 1006.18 387.15 C 1002.56 389.57, 1000.22 391.47, 996.35 395.43 C 992.49 399.39, 990.16 402.23, 986.85 406.95 C 983.55 411.68, 981.78 414.45, 979.83 419.06 C 977.88 423.66, 976.85 426.22, 977.10 429.98 C 977.34 433.75, 978.51 435.83, 981.04 437.88 C 983.58 439.93, 985.89 440.36, 989.78 440.22 C 993.67 440.08, 996.07 439.25, 1000.49 437.19 C 1004.91 435.12, 1007.52 433.48, 1011.90 429.91 C 1016.28 426.33, 1018.69 423.88, 1022.40 419.31 C 1026.12 414.73, 1028.07 411.83, 1030.47 407.03 C 1032.86 402.24, 1033.80 399.58, 1034.39 395.32 C 1034.98 391.06, 1034.78 388.93, 1033.44 385.75 C 1032.09 382.57, 1030.44 381.13, 1027.68 379.41 C 1024.91 377.70, 1022.56 377.49, 1019.63 377.17 C 1016.70 376.84, 1015.05 377.20, 1013.01 377.79 C 1010.98 378.38, 1010.08 379.28, 1009.46 380.11 C 1008.84 380.95, 1009.12 381.48, 1009.92 381.98 C 1010.71 382.47, 1011.61 382.31, 1013.42 382.57 C 1015.23 382.83, 1016.57 383.01, 1018.95 383.28 C 1021.33 383.54, 1023.20 383.06, 1025.32 383.90 C 1027.43 384.75, 1028.45 385.32, 1029.52 387.51 C 1030.60 389.70, 1031.10 391.24, 1030.68 394.85 C 1030.27 398.45, 1029.60 401.07, 1027.44 405.54 C 1025.27 410.02, 1023.41 412.91, 1019.86 417.23 C 1016.32 421.56, 1013.92 423.90, 1009.72 427.16 C 1005.51 430.43, 1002.88 431.80, 998.85 433.55 C 994.82 435.30, 992.62 435.69, 989.56 435.90 C 986.50 436.12, 985.25 435.86, 983.54 434.64 C 981.83 433.42, 981.10 432.63, 981.03 429.79 C 980.95 426.96, 981.42 424.62, 983.16 420.46 C 984.91 416.30, 986.56 413.44, 989.75 409.01 C 992.94 404.57, 995.32 401.81, 999.13 398.29 C 1002.95 394.76, 1005.53 393.26, 1008.82 391.39 C 1012.10 389.53, 1013.76 389.47, 1015.56 388.96 C 1017.36 388.45, 1017.05 388.57, 1017.81 388.83 C 1018.57 389.10, 1018.59 390.26, 1019.35 390.27 C 1020.12 390.27, 1021.50 389.88, 1021.65 388.86" style="stroke: black; fill: black;"/></svg>